<svg width="83" height="50" viewBox="0 0 83 50" fill="none" xmlns="http://www.w3.org/2000/svg">
<path d="M29.7549 22.5764V27.1406V37.81V49.5023H82.4222V22.5764H29.7549Z" fill="white"/>
<path d="M82.9174 49.9975H29.2599V22.0839H82.9174V49.9975ZM30.2501 49.0073H81.9273V23.0715H30.2501V49.0073Z" fill="black"/>
<path d="M54.1855 0.51532H0.50528V27.1407H54.1855V0.51532Z" fill="white"/>
<path d="M54.6804 27.6358H0.0100708V0.0202026H54.6804V27.6358ZM1.00022 26.6456H53.6928V1.01035H1.00022V26.6456Z" fill="black"/>
<path d="M17.0978 10.9118H17.0296L15.115 18.7143H12.5815L10.144 8.97699H11.9298L13.8041 16.7517H13.9L15.8071 8.97699H18.3279L20.2299 16.7517H20.331L22.2052 8.97699H23.9834L21.5535 18.7143H19.02L17.0978 10.9118Z" fill="black"/>
<path d="M33.1499 15.8626H27.1812C27.2014 15.951 27.1939 16.0597 27.3909 16.4335C27.4869 16.6179 27.6081 16.7871 27.7495 16.9286C28.035 17.2216 28.626 17.507 29.351 17.507C29.7248 17.507 30.0506 17.4464 30.3436 17.3176C30.6291 17.1963 30.8185 17.0725 30.9221 16.9513L31.0787 16.7669H32.9125C32.8923 16.82 32.8847 16.8882 32.723 17.1736C32.5538 17.459 32.377 17.704 31.9754 18.0223C31.5737 18.3481 31.1544 18.578 30.4674 18.7346C30.1214 18.8078 29.7551 18.8508 29.3535 18.8508C28.2194 18.8508 27.3025 18.5325 26.5902 17.901C25.8779 17.2696 25.5167 16.4007 25.5167 15.3069C25.5167 14.2132 25.8753 13.3519 26.5902 12.7129C27.3025 12.0814 28.2194 11.7631 29.3535 11.7631C30.4876 11.7631 31.4121 12.0814 32.1244 12.7129C32.8367 13.3519 33.1903 14.2132 33.1903 15.3069L33.1499 15.8626ZM27.7647 13.65C27.4793 13.948 27.2823 14.2688 27.2292 14.486L27.1964 14.6426H31.4803C31.4803 14.5669 31.4727 14.4658 31.2959 14.1122C31.2075 13.9354 31.0913 13.7788 30.9625 13.6424C30.6897 13.3772 30.0936 13.1119 29.3535 13.1119C28.626 13.1145 28.0501 13.357 27.7647 13.65Z" fill="black"/>
<path d="M38.7018 18.5931C38.3078 18.4238 38.0375 18.2546 37.8859 18.0778L37.6611 17.8252H37.5929V18.7143H36.037V8.97699H37.5929V12.7936H37.6611C37.694 12.7406 37.7369 12.6724 38.0148 12.4274C38.1512 12.3112 38.3002 12.2026 38.4694 12.1141C38.8028 11.9373 39.3989 11.7605 40.0254 11.7605C41.0433 11.7605 41.9072 12.0788 42.6068 12.7178C43.3065 13.3619 43.6601 14.2258 43.6601 15.3043C43.6601 16.3905 43.3065 17.2543 42.6068 17.8909C41.9072 18.5299 41.0458 18.8482 40.0254 18.8482C39.5303 18.8507 39.0883 18.7699 38.7018 18.5931ZM42.0436 15.3069C42.0436 14.6754 41.839 14.1652 41.4323 13.7711C41.0256 13.3771 40.4876 13.1801 39.8233 13.1801C39.1514 13.1801 38.6134 13.3771 38.2067 13.7711C37.8001 14.1652 37.5955 14.6754 37.5955 15.3069C37.5955 15.9383 37.8001 16.4536 38.2067 16.8477C38.6134 17.2417 39.1514 17.4387 39.8233 17.4387C40.4876 17.4387 41.0256 17.2417 41.4323 16.8477C41.839 16.4536 42.0436 15.9383 42.0436 15.3069Z" fill="black"/>
<path d="M46.5899 40.1263V41.6544H39.0375V31.9171H40.7627V40.1263H46.5899Z" fill="black"/>
<path d="M49.1537 38.1435C49.7448 37.7975 50.4975 37.6206 51.4017 37.6206C51.864 37.6206 52.2908 37.6762 52.6925 37.7848C53.0865 37.901 53.3644 38.0096 53.5336 38.1233L53.771 38.2723V37.2872C53.771 36.9134 53.6296 36.6027 53.3441 36.3501C53.0511 36.0975 52.5965 35.9763 51.9726 35.9763C50.894 35.9763 50.207 36.3223 50.207 36.9942H48.598C48.6056 36.2263 48.9238 35.6504 49.5427 35.269C50.1615 34.8876 50.9749 34.6982 51.9726 34.6982C52.9905 34.6982 53.8064 34.9154 54.4176 35.3574C55.0213 35.7995 55.327 36.4436 55.327 37.2847V39.5529C55.327 40.1844 55.4684 40.4016 55.8574 40.4016C55.9989 40.4016 56.1226 40.389 56.1757 40.341L56.2035 40.3284V41.6671C56.0469 41.7479 55.8018 41.7884 55.4709 41.7884C55.0971 41.7884 54.7839 41.7126 54.5338 41.5636C54.2762 41.4221 54.112 41.2706 54.0388 41.1215L53.9377 40.8967H53.8569C53.8241 40.9498 53.7887 40.9978 53.4982 41.2023C53.3492 41.3034 53.185 41.3994 53.0031 41.4751C52.6419 41.6393 51.9701 41.7884 51.23 41.7884C50.3686 41.7884 49.6614 41.6191 49.1032 41.2731C48.5475 40.9346 48.2671 40.4168 48.2671 39.7323C48.2646 39.025 48.5626 38.4971 49.1537 38.1435ZM52.9097 40.3713C53.228 40.2829 53.4603 40.1869 53.5892 40.0985L53.771 39.9571V39.3054C53.3896 39.02 52.7379 38.8785 51.821 38.871C50.5253 38.871 49.8736 39.1437 49.8736 39.6792C49.8736 40.2375 50.5253 40.5153 51.821 40.5153C52.2252 40.5128 52.5839 40.4648 52.9097 40.3713Z" fill="black"/>
<path d="M63.339 37.0371C63.339 36.7037 63.2228 36.4385 62.9854 36.2566C62.7479 36.0722 62.3059 35.9788 61.6694 35.9788C60.5833 35.9788 60.0402 36.2364 60.0402 36.7593C60.0402 36.9841 60.169 37.1457 60.4267 37.2543C60.6767 37.3705 60.9975 37.4387 61.384 37.459C61.7704 37.4867 62.1847 37.5271 62.6343 37.5878C63.0763 37.6484 63.4906 37.7292 63.877 37.8328C64.2635 37.9414 64.5843 38.146 64.8343 38.444C65.0869 38.7497 65.2157 39.1361 65.2157 39.611C65.2157 40.1212 65.0591 40.5481 64.7459 40.8815C64.4277 41.22 64.0185 41.46 63.5234 41.5888C63.0207 41.7252 62.4221 41.7934 61.7376 41.7934C60.6919 41.7934 59.8558 41.6039 59.2319 41.2301C58.6004 40.8563 58.2872 40.2602 58.2872 39.4317V39.2144H59.9038V39.4317C59.9038 40.1591 60.5151 40.5178 61.7376 40.5178C62.9803 40.5178 63.5992 40.2197 63.6042 39.6287C63.6042 39.3433 63.4274 39.1387 63.0687 39.025C62.7101 38.9088 62.2807 38.8356 61.778 38.8002C61.2678 38.7674 60.7651 38.7118 60.2625 38.6385C59.7522 38.5628 59.3254 38.3809 58.9667 38.0753C58.6055 37.7772 58.4312 37.3478 58.4312 36.7921C58.4312 36.1051 58.7242 35.5822 59.3153 35.2311C59.9063 34.8851 60.6944 34.7083 61.6845 34.7083C62.6974 34.7083 63.4906 34.8977 64.074 35.2791C64.6575 35.658 64.9505 36.249 64.9505 37.0447H63.339V37.0371Z" fill="black"/>
<path d="M73.5965 41.6545V38.2041C73.5965 37.5044 73.4121 36.9816 73.0382 36.6355C72.6644 36.2895 72.1769 36.1202 71.5656 36.1202C70.9215 36.1202 70.4189 36.3097 70.0703 36.6987C69.7218 37.0877 69.5475 37.5878 69.5475 38.2066V41.657H67.9915V31.9197H69.5475V35.9409H69.6435C69.6763 35.8651 69.7041 35.7919 69.9769 35.514C70.1057 35.3726 70.2623 35.2488 70.4315 35.1326C70.7776 34.9154 71.4242 34.7057 72.1491 34.7057C73.0256 34.7057 73.7455 34.9634 74.3088 35.4812C74.872 36.004 75.1499 36.777 75.1499 37.8101V41.6595H73.5965V41.6545Z" fill="black"/>
<path d="M82.9401 0H55.8221V20.7931H82.9401V0Z" fill="black"/>
<path d="M28.0475 28.8532H0V50H28.0475V28.8532Z" fill="black"/>
<path d="M63.4215 4.04138C63.9367 4.26619 64.452 4.49352 64.9698 4.71579C68.4429 6.21112 71.916 7.70645 75.3891 9.2043C75.4598 9.23461 75.5407 9.29523 75.5685 9.36091C75.6341 9.51499 75.5508 9.63623 75.3714 9.68675C74.4874 9.92923 73.6033 10.1692 72.7193 10.4117C71.7922 10.6643 70.8652 10.9194 69.9382 11.1669C69.8397 11.1947 69.8195 11.2604 69.7943 11.3362C69.1982 13.0866 68.5995 14.8396 68.0034 16.59C67.9958 16.6153 67.9933 16.6481 67.9756 16.6658C67.915 16.7239 67.8544 16.8072 67.7811 16.8224C67.6826 16.8426 67.6144 16.7643 67.5791 16.6633C67.4124 16.196 67.2431 15.7287 67.0764 15.2614C65.7806 11.6519 64.4848 8.04239 63.1916 4.4329C63.1133 4.21567 63.131 4.15505 63.3154 4.04391C63.3482 4.04138 63.3836 4.04138 63.4215 4.04138ZM74.697 9.40132C74.697 9.39122 74.697 9.38112 74.6995 9.36849C71.0522 7.80496 67.4048 6.23891 63.717 4.6577C65.0759 8.42885 66.4222 12.1571 67.7786 15.9156C67.8039 15.8423 67.819 15.807 67.8317 15.7691C68.3697 14.1854 68.9077 12.6042 69.4406 11.0204C69.4886 10.8764 69.5669 10.7981 69.7109 10.7603C71.0749 10.3915 72.4363 10.0202 73.7978 9.64886C74.0959 9.56803 74.3964 9.48468 74.697 9.40132Z" fill="white"/>
<path d="M67.7481 17.075C67.5688 17.075 67.4147 16.9512 67.3415 16.7441C67.2328 16.4334 67.1192 16.1253 67.008 15.8146L62.9515 4.51628C62.8327 4.18791 62.8959 4.001 63.1788 3.82671L63.2394 3.78882H63.4718L63.9997 4.01868C64.3559 4.17275 64.7095 4.32936 65.0656 4.48091L67.8113 5.66303C70.37 6.76432 72.9262 7.86561 75.4849 8.96942C75.5405 8.99215 75.7224 9.08309 75.7981 9.2599C75.8537 9.39377 75.8537 9.53269 75.7956 9.65141C75.7501 9.74234 75.6516 9.86611 75.4344 9.92421C74.5503 10.1667 73.6663 10.4092 72.7822 10.6491L72.2594 10.7906C71.5193 10.9927 70.7767 11.1947 70.0341 11.3943C70.0341 11.3968 70.0341 11.3968 70.0315 11.3993L68.2356 16.6658C68.228 16.7037 68.2104 16.7795 68.1422 16.8426C68.1321 16.8527 68.1194 16.8654 68.1068 16.878C68.0437 16.9437 67.9603 17.0321 67.829 17.0598C67.8037 17.0725 67.7759 17.075 67.7481 17.075ZM64.1513 5.11996L67.7709 15.1579L67.935 14.6754C68.3569 13.4327 68.7787 12.1874 69.198 10.9421C69.2738 10.7173 69.4203 10.5784 69.6425 10.5178C70.7539 10.2172 71.8653 9.9141 72.9742 9.611L73.9795 9.33567L64.1513 5.11996ZM74.9545 9.29274L74.9419 9.54027C75.0606 9.50743 75.1793 9.4746 75.3005 9.44176C75.2955 9.43924 75.2904 9.43671 75.2879 9.43418C75.1768 9.38872 75.0656 9.34073 74.9545 9.29274Z" fill="white"/>
<path d="M6.30701 40.8866V39.217L13.4174 36.5067V37.9263L7.78718 40.0101V40.091L13.4174 42.1824V43.5944L6.30701 40.8866Z" fill="white"/>
<path d="M15.0088 45.1301L20.3056 33.7206H21.7378L16.441 45.1301H15.0088Z" fill="white"/>
</svg>
